# xmcd
# 
# Track frame offsets:
#     150
#     14967
#     29585
#     53380
#     74207
#     100960
#     118010
#     127765
#     148910
#     161957
#     182682
#     197645
# 
# Disc length: 2999
# 
# Revision: 2
# Processed by: cddbd v1.5.2PL0 Copyright (c) Steve Scherf et al.
# Submitted via: fre:ac v1.0.17
# 
DISCID=b70bb50c
DTITLE=キンモクセイ - Nice Beat
DYEAR=2004
DGENRE=JPop
TTITLE0=ステレオ
TTITLE1=君とチンパンジー
TTITLE2=兄ちゃんの唐揚げ
TTITLE3=メロディ
TTITLE4=ナイスビート
TTITLE5=スウィート・ララバイ
TTITLE6=目で見ろ
TTITLE7=失恋記念日
TTITLE8=太郎のおかたづけ
TTITLE9=君が泣く
TTITLE10=ひぐらし
TTITLE11=むすんでひらいて
EXTD=YEAR: 2004
EXTT0=
EXTT1=
EXTT2=
EXTT3=
EXTT4=
EXTT5=
EXTT6=
EXTT7=
EXTT8=
EXTT9=
EXTT10=
EXTT11=
PLAYORDER=
